<mxfile host="Electron" modified="2025-03-09T16:24:14.773Z" agent="Mozilla/5.0 (Windows NT 10.0; Win64; x64) AppleWebKit/537.36 (KHTML, like Gecko) draw.io/24.6.4 Chrome/124.0.6367.207 Electron/30.0.6 Safari/537.36" etag="icDqhlxmTTXSienrKqlD" version="24.6.4" type="device">
  <diagram name="Page-1" id="Z3YNCJ5uBpmXXQqrxnNM">
    <mxGraphModel dx="2247" dy="822" grid="1" gridSize="10" guides="1" tooltips="1" connect="1" arrows="1" fold="1" page="1" pageScale="1" pageWidth="827" pageHeight="1169" math="0" shadow="0">
      <root>
        <mxCell id="0" />
        <mxCell id="1" parent="0" />
        <mxCell id="CaIECVP_0KfciF9ayiR9-2" value="Hewan" style="rounded=0;whiteSpace=wrap;html=1;" vertex="1" parent="1">
          <mxGeometry x="145" y="380" width="120" height="60" as="geometry" />
        </mxCell>
        <mxCell id="CaIECVP_0KfciF9ayiR9-3" value="Pengguna" style="rounded=0;whiteSpace=wrap;html=1;" vertex="1" parent="1">
          <mxGeometry x="145" y="660" width="120" height="60" as="geometry" />
        </mxCell>
        <mxCell id="CaIECVP_0KfciF9ayiR9-4" value="nama" style="ellipse;whiteSpace=wrap;html=1;" vertex="1" parent="1">
          <mxGeometry x="40" y="330" width="70" height="30" as="geometry" />
        </mxCell>
        <mxCell id="CaIECVP_0KfciF9ayiR9-5" value="ras" style="ellipse;whiteSpace=wrap;html=1;" vertex="1" parent="1">
          <mxGeometry x="170" y="220" width="70" height="30" as="geometry" />
        </mxCell>
        <mxCell id="CaIECVP_0KfciF9ayiR9-6" value="jenis" style="ellipse;whiteSpace=wrap;html=1;" vertex="1" parent="1">
          <mxGeometry x="130" y="265" width="70" height="30" as="geometry" />
        </mxCell>
        <mxCell id="CaIECVP_0KfciF9ayiR9-7" value="umur" style="ellipse;whiteSpace=wrap;html=1;" vertex="1" parent="1">
          <mxGeometry x="80" y="295" width="70" height="30" as="geometry" />
        </mxCell>
        <mxCell id="CaIECVP_0KfciF9ayiR9-8" value="gender" style="ellipse;whiteSpace=wrap;html=1;" vertex="1" parent="1">
          <mxGeometry x="300" y="325" width="70" height="30" as="geometry" />
        </mxCell>
        <mxCell id="CaIECVP_0KfciF9ayiR9-9" value="berat" style="ellipse;whiteSpace=wrap;html=1;" vertex="1" parent="1">
          <mxGeometry x="210" y="265" width="70" height="30" as="geometry" />
        </mxCell>
        <mxCell id="CaIECVP_0KfciF9ayiR9-10" value="keterangan" style="ellipse;whiteSpace=wrap;html=1;" vertex="1" parent="1">
          <mxGeometry x="270" y="290" width="70" height="30" as="geometry" />
        </mxCell>
        <mxCell id="CaIECVP_0KfciF9ayiR9-11" value="" style="endArrow=none;html=1;rounded=0;entryX=0.5;entryY=1;entryDx=0;entryDy=0;exitX=0;exitY=0.5;exitDx=0;exitDy=0;" edge="1" parent="1" source="CaIECVP_0KfciF9ayiR9-2" target="CaIECVP_0KfciF9ayiR9-4">
          <mxGeometry width="50" height="50" relative="1" as="geometry">
            <mxPoint x="60" y="420" as="sourcePoint" />
            <mxPoint x="110" y="370" as="targetPoint" />
          </mxGeometry>
        </mxCell>
        <mxCell id="CaIECVP_0KfciF9ayiR9-12" value="" style="endArrow=none;html=1;rounded=0;entryX=0.5;entryY=1;entryDx=0;entryDy=0;exitX=0.25;exitY=0;exitDx=0;exitDy=0;" edge="1" parent="1" source="CaIECVP_0KfciF9ayiR9-2" target="CaIECVP_0KfciF9ayiR9-7">
          <mxGeometry width="50" height="50" relative="1" as="geometry">
            <mxPoint x="150" y="360" as="sourcePoint" />
            <mxPoint x="200" y="310" as="targetPoint" />
          </mxGeometry>
        </mxCell>
        <mxCell id="CaIECVP_0KfciF9ayiR9-13" value="" style="endArrow=none;html=1;rounded=0;entryX=0.5;entryY=1;entryDx=0;entryDy=0;exitX=0.5;exitY=0;exitDx=0;exitDy=0;" edge="1" parent="1" source="CaIECVP_0KfciF9ayiR9-2" target="CaIECVP_0KfciF9ayiR9-6">
          <mxGeometry width="50" height="50" relative="1" as="geometry">
            <mxPoint x="185" y="390" as="sourcePoint" />
            <mxPoint x="125" y="335" as="targetPoint" />
          </mxGeometry>
        </mxCell>
        <mxCell id="CaIECVP_0KfciF9ayiR9-14" value="" style="endArrow=none;html=1;rounded=0;entryX=0.5;entryY=1;entryDx=0;entryDy=0;exitX=0.5;exitY=0;exitDx=0;exitDy=0;" edge="1" parent="1" source="CaIECVP_0KfciF9ayiR9-2" target="CaIECVP_0KfciF9ayiR9-5">
          <mxGeometry width="50" height="50" relative="1" as="geometry">
            <mxPoint x="215" y="390" as="sourcePoint" />
            <mxPoint x="175" y="305" as="targetPoint" />
          </mxGeometry>
        </mxCell>
        <mxCell id="CaIECVP_0KfciF9ayiR9-15" value="" style="endArrow=none;html=1;rounded=0;entryX=0.5;entryY=1;entryDx=0;entryDy=0;exitX=0.5;exitY=0;exitDx=0;exitDy=0;" edge="1" parent="1" source="CaIECVP_0KfciF9ayiR9-2" target="CaIECVP_0KfciF9ayiR9-9">
          <mxGeometry width="50" height="50" relative="1" as="geometry">
            <mxPoint x="215" y="390" as="sourcePoint" />
            <mxPoint x="215" y="260" as="targetPoint" />
          </mxGeometry>
        </mxCell>
        <mxCell id="CaIECVP_0KfciF9ayiR9-16" value="" style="endArrow=none;html=1;rounded=0;entryX=0.5;entryY=1;entryDx=0;entryDy=0;exitX=0.75;exitY=0;exitDx=0;exitDy=0;" edge="1" parent="1" source="CaIECVP_0KfciF9ayiR9-2" target="CaIECVP_0KfciF9ayiR9-10">
          <mxGeometry width="50" height="50" relative="1" as="geometry">
            <mxPoint x="215" y="390" as="sourcePoint" />
            <mxPoint x="255" y="305" as="targetPoint" />
          </mxGeometry>
        </mxCell>
        <mxCell id="CaIECVP_0KfciF9ayiR9-17" value="" style="endArrow=none;html=1;rounded=0;entryX=0.5;entryY=1;entryDx=0;entryDy=0;exitX=1;exitY=0.5;exitDx=0;exitDy=0;" edge="1" parent="1" source="CaIECVP_0KfciF9ayiR9-2" target="CaIECVP_0KfciF9ayiR9-8">
          <mxGeometry width="50" height="50" relative="1" as="geometry">
            <mxPoint x="245" y="390" as="sourcePoint" />
            <mxPoint x="315" y="330" as="targetPoint" />
          </mxGeometry>
        </mxCell>
        <mxCell id="CaIECVP_0KfciF9ayiR9-18" value="&lt;u&gt;id&lt;/u&gt;" style="ellipse;whiteSpace=wrap;html=1;" vertex="1" parent="1">
          <mxGeometry x="20" y="395" width="70" height="30" as="geometry" />
        </mxCell>
        <mxCell id="CaIECVP_0KfciF9ayiR9-19" value="" style="endArrow=none;html=1;rounded=0;entryX=0;entryY=0.5;entryDx=0;entryDy=0;exitX=1;exitY=0.5;exitDx=0;exitDy=0;" edge="1" parent="1" source="CaIECVP_0KfciF9ayiR9-18" target="CaIECVP_0KfciF9ayiR9-2">
          <mxGeometry width="50" height="50" relative="1" as="geometry">
            <mxPoint x="40" y="470" as="sourcePoint" />
            <mxPoint x="90" y="420" as="targetPoint" />
          </mxGeometry>
        </mxCell>
        <mxCell id="CaIECVP_0KfciF9ayiR9-20" value="&lt;u&gt;id&lt;/u&gt;" style="ellipse;whiteSpace=wrap;html=1;" vertex="1" parent="1">
          <mxGeometry x="40" y="740" width="70" height="30" as="geometry" />
        </mxCell>
        <mxCell id="CaIECVP_0KfciF9ayiR9-21" value="nama" style="ellipse;whiteSpace=wrap;html=1;" vertex="1" parent="1">
          <mxGeometry x="80" y="780" width="70" height="30" as="geometry" />
        </mxCell>
        <mxCell id="CaIECVP_0KfciF9ayiR9-22" value="jenis_kelamin" style="ellipse;whiteSpace=wrap;html=1;" vertex="1" parent="1">
          <mxGeometry x="120" y="820" width="90" height="30" as="geometry" />
        </mxCell>
        <mxCell id="CaIECVP_0KfciF9ayiR9-23" value="alamat" style="ellipse;whiteSpace=wrap;html=1;" vertex="1" parent="1">
          <mxGeometry x="230" y="820" width="70" height="30" as="geometry" />
        </mxCell>
        <mxCell id="CaIECVP_0KfciF9ayiR9-24" value="no_telepon" style="ellipse;whiteSpace=wrap;html=1;" vertex="1" parent="1">
          <mxGeometry x="290" y="740" width="70" height="30" as="geometry" />
        </mxCell>
        <mxCell id="CaIECVP_0KfciF9ayiR9-25" value="foto" style="ellipse;whiteSpace=wrap;html=1;" vertex="1" parent="1">
          <mxGeometry x="270" y="780" width="70" height="30" as="geometry" />
        </mxCell>
        <mxCell id="CaIECVP_0KfciF9ayiR9-26" value="username" style="ellipse;whiteSpace=wrap;html=1;" vertex="1" parent="1">
          <mxGeometry x="50" y="690" width="70" height="30" as="geometry" />
        </mxCell>
        <mxCell id="CaIECVP_0KfciF9ayiR9-27" value="password" style="ellipse;whiteSpace=wrap;html=1;" vertex="1" parent="1">
          <mxGeometry x="300" y="690" width="70" height="30" as="geometry" />
        </mxCell>
        <mxCell id="CaIECVP_0KfciF9ayiR9-28" value="" style="endArrow=none;html=1;rounded=0;entryX=0;entryY=0.5;entryDx=0;entryDy=0;exitX=1;exitY=0.5;exitDx=0;exitDy=0;" edge="1" parent="1" source="CaIECVP_0KfciF9ayiR9-26" target="CaIECVP_0KfciF9ayiR9-3">
          <mxGeometry width="50" height="50" relative="1" as="geometry">
            <mxPoint x="10" y="680" as="sourcePoint" />
            <mxPoint x="60" y="630" as="targetPoint" />
          </mxGeometry>
        </mxCell>
        <mxCell id="CaIECVP_0KfciF9ayiR9-29" value="" style="endArrow=none;html=1;rounded=0;entryX=1;entryY=0.5;entryDx=0;entryDy=0;exitX=0;exitY=0.5;exitDx=0;exitDy=0;" edge="1" parent="1" source="CaIECVP_0KfciF9ayiR9-27" target="CaIECVP_0KfciF9ayiR9-3">
          <mxGeometry width="50" height="50" relative="1" as="geometry">
            <mxPoint x="130" y="715" as="sourcePoint" />
            <mxPoint x="155" y="700" as="targetPoint" />
          </mxGeometry>
        </mxCell>
        <mxCell id="CaIECVP_0KfciF9ayiR9-30" value="" style="endArrow=none;html=1;rounded=0;entryX=1;entryY=0.5;entryDx=0;entryDy=0;exitX=0;exitY=0;exitDx=0;exitDy=0;" edge="1" parent="1" source="CaIECVP_0KfciF9ayiR9-24" target="CaIECVP_0KfciF9ayiR9-3">
          <mxGeometry width="50" height="50" relative="1" as="geometry">
            <mxPoint x="310" y="715" as="sourcePoint" />
            <mxPoint x="275" y="700" as="targetPoint" />
          </mxGeometry>
        </mxCell>
        <mxCell id="CaIECVP_0KfciF9ayiR9-31" value="" style="endArrow=none;html=1;rounded=0;entryX=0;entryY=0.5;entryDx=0;entryDy=0;exitX=1;exitY=0;exitDx=0;exitDy=0;" edge="1" parent="1" source="CaIECVP_0KfciF9ayiR9-20" target="CaIECVP_0KfciF9ayiR9-3">
          <mxGeometry width="50" height="50" relative="1" as="geometry">
            <mxPoint x="310" y="754" as="sourcePoint" />
            <mxPoint x="275" y="700" as="targetPoint" />
          </mxGeometry>
        </mxCell>
        <mxCell id="CaIECVP_0KfciF9ayiR9-32" value="" style="endArrow=none;html=1;rounded=0;entryX=0.25;entryY=1;entryDx=0;entryDy=0;exitX=0.5;exitY=0;exitDx=0;exitDy=0;" edge="1" parent="1" source="CaIECVP_0KfciF9ayiR9-21" target="CaIECVP_0KfciF9ayiR9-3">
          <mxGeometry width="50" height="50" relative="1" as="geometry">
            <mxPoint x="110" y="754" as="sourcePoint" />
            <mxPoint x="155" y="700" as="targetPoint" />
          </mxGeometry>
        </mxCell>
        <mxCell id="CaIECVP_0KfciF9ayiR9-33" value="" style="endArrow=none;html=1;rounded=0;entryX=0.75;entryY=1;entryDx=0;entryDy=0;exitX=0.5;exitY=0;exitDx=0;exitDy=0;" edge="1" parent="1" source="CaIECVP_0KfciF9ayiR9-25" target="CaIECVP_0KfciF9ayiR9-3">
          <mxGeometry width="50" height="50" relative="1" as="geometry">
            <mxPoint x="125" y="790" as="sourcePoint" />
            <mxPoint x="185" y="730" as="targetPoint" />
          </mxGeometry>
        </mxCell>
        <mxCell id="CaIECVP_0KfciF9ayiR9-34" value="" style="endArrow=none;html=1;rounded=0;entryX=0.5;entryY=1;entryDx=0;entryDy=0;exitX=0.5;exitY=0;exitDx=0;exitDy=0;" edge="1" parent="1" source="CaIECVP_0KfciF9ayiR9-22" target="CaIECVP_0KfciF9ayiR9-3">
          <mxGeometry width="50" height="50" relative="1" as="geometry">
            <mxPoint x="315" y="790" as="sourcePoint" />
            <mxPoint x="245" y="730" as="targetPoint" />
          </mxGeometry>
        </mxCell>
        <mxCell id="CaIECVP_0KfciF9ayiR9-35" value="" style="endArrow=none;html=1;rounded=0;entryX=0.5;entryY=1;entryDx=0;entryDy=0;exitX=0.5;exitY=0;exitDx=0;exitDy=0;" edge="1" parent="1" source="CaIECVP_0KfciF9ayiR9-23" target="CaIECVP_0KfciF9ayiR9-3">
          <mxGeometry width="50" height="50" relative="1" as="geometry">
            <mxPoint x="175" y="830" as="sourcePoint" />
            <mxPoint x="215" y="730" as="targetPoint" />
          </mxGeometry>
        </mxCell>
        <mxCell id="CaIECVP_0KfciF9ayiR9-36" value="memiliki" style="rhombus;whiteSpace=wrap;html=1;" vertex="1" parent="1">
          <mxGeometry x="35" y="447" width="85" height="95" as="geometry" />
        </mxCell>
        <mxCell id="CaIECVP_0KfciF9ayiR9-37" value="Donasi" style="rounded=0;whiteSpace=wrap;html=1;" vertex="1" parent="1">
          <mxGeometry x="520" y="525" width="120" height="60" as="geometry" />
        </mxCell>
        <mxCell id="CaIECVP_0KfciF9ayiR9-38" value="Adopsi" style="rounded=0;whiteSpace=wrap;html=1;" vertex="1" parent="1">
          <mxGeometry x="-160" y="507" width="120" height="60" as="geometry" />
        </mxCell>
        <mxCell id="CaIECVP_0KfciF9ayiR9-40" value="&lt;u&gt;id&lt;/u&gt;" style="ellipse;whiteSpace=wrap;html=1;" vertex="1" parent="1">
          <mxGeometry x="450" y="457" width="70" height="30" as="geometry" />
        </mxCell>
        <mxCell id="CaIECVP_0KfciF9ayiR9-42" value="id_pengguna" style="ellipse;whiteSpace=wrap;html=1;" vertex="1" parent="1">
          <mxGeometry x="500" y="410" width="80" height="47" as="geometry" />
        </mxCell>
        <mxCell id="CaIECVP_0KfciF9ayiR9-43" value="jumlah" style="ellipse;whiteSpace=wrap;html=1;" vertex="1" parent="1">
          <mxGeometry x="590" y="410" width="70" height="47" as="geometry" />
        </mxCell>
        <mxCell id="CaIECVP_0KfciF9ayiR9-44" value="tanggal" style="ellipse;whiteSpace=wrap;html=1;" vertex="1" parent="1">
          <mxGeometry x="640" y="457" width="70" height="30" as="geometry" />
        </mxCell>
        <mxCell id="CaIECVP_0KfciF9ayiR9-45" value="" style="endArrow=none;html=1;rounded=0;entryX=0.5;entryY=1;entryDx=0;entryDy=0;exitX=0.25;exitY=0;exitDx=0;exitDy=0;" edge="1" parent="1" source="CaIECVP_0KfciF9ayiR9-37" target="CaIECVP_0KfciF9ayiR9-40">
          <mxGeometry width="50" height="50" relative="1" as="geometry">
            <mxPoint x="450" y="567" as="sourcePoint" />
            <mxPoint x="500" y="517" as="targetPoint" />
          </mxGeometry>
        </mxCell>
        <mxCell id="CaIECVP_0KfciF9ayiR9-46" value="" style="endArrow=none;html=1;rounded=0;entryX=0.5;entryY=1;entryDx=0;entryDy=0;exitX=0.5;exitY=0;exitDx=0;exitDy=0;" edge="1" parent="1" source="CaIECVP_0KfciF9ayiR9-37" target="CaIECVP_0KfciF9ayiR9-42">
          <mxGeometry width="50" height="50" relative="1" as="geometry">
            <mxPoint x="560" y="535" as="sourcePoint" />
            <mxPoint x="495" y="497" as="targetPoint" />
          </mxGeometry>
        </mxCell>
        <mxCell id="CaIECVP_0KfciF9ayiR9-47" value="" style="endArrow=none;html=1;rounded=0;entryX=0.5;entryY=1;entryDx=0;entryDy=0;exitX=0.5;exitY=0;exitDx=0;exitDy=0;" edge="1" parent="1" source="CaIECVP_0KfciF9ayiR9-37" target="CaIECVP_0KfciF9ayiR9-43">
          <mxGeometry width="50" height="50" relative="1" as="geometry">
            <mxPoint x="590" y="535" as="sourcePoint" />
            <mxPoint x="555" y="467" as="targetPoint" />
          </mxGeometry>
        </mxCell>
        <mxCell id="CaIECVP_0KfciF9ayiR9-48" value="" style="endArrow=none;html=1;rounded=0;entryX=0.5;entryY=1;entryDx=0;entryDy=0;exitX=0.75;exitY=0;exitDx=0;exitDy=0;" edge="1" parent="1" source="CaIECVP_0KfciF9ayiR9-37" target="CaIECVP_0KfciF9ayiR9-44">
          <mxGeometry width="50" height="50" relative="1" as="geometry">
            <mxPoint x="590" y="535" as="sourcePoint" />
            <mxPoint x="635" y="467" as="targetPoint" />
          </mxGeometry>
        </mxCell>
        <mxCell id="CaIECVP_0KfciF9ayiR9-51" value="memberi" style="rhombus;whiteSpace=wrap;html=1;" vertex="1" parent="1">
          <mxGeometry x="340" y="507" width="85" height="95" as="geometry" />
        </mxCell>
        <mxCell id="CaIECVP_0KfciF9ayiR9-52" value="" style="endArrow=none;html=1;rounded=0;entryX=0.5;entryY=1;entryDx=0;entryDy=0;exitX=1;exitY=0.5;exitDx=0;exitDy=0;" edge="1" parent="1" source="CaIECVP_0KfciF9ayiR9-36" target="CaIECVP_0KfciF9ayiR9-2">
          <mxGeometry width="50" height="50" relative="1" as="geometry">
            <mxPoint x="180" y="500" as="sourcePoint" />
            <mxPoint x="230" y="450" as="targetPoint" />
          </mxGeometry>
        </mxCell>
        <mxCell id="CaIECVP_0KfciF9ayiR9-79" value="1" style="edgeLabel;html=1;align=center;verticalAlign=middle;resizable=0;points=[];fontSize=14;" vertex="1" connectable="0" parent="CaIECVP_0KfciF9ayiR9-52">
          <mxGeometry x="-0.0212" y="-1" relative="1" as="geometry">
            <mxPoint as="offset" />
          </mxGeometry>
        </mxCell>
        <mxCell id="CaIECVP_0KfciF9ayiR9-54" value="" style="endArrow=none;html=1;rounded=0;entryX=0;entryY=0.5;entryDx=0;entryDy=0;exitX=1;exitY=0.5;exitDx=0;exitDy=0;" edge="1" parent="1" source="CaIECVP_0KfciF9ayiR9-51" target="CaIECVP_0KfciF9ayiR9-37">
          <mxGeometry width="50" height="50" relative="1" as="geometry">
            <mxPoint x="450" y="590" as="sourcePoint" />
            <mxPoint x="500" y="540" as="targetPoint" />
          </mxGeometry>
        </mxCell>
        <mxCell id="CaIECVP_0KfciF9ayiR9-83" value="M" style="edgeLabel;html=1;align=center;verticalAlign=middle;resizable=0;points=[];fontSize=15;" vertex="1" connectable="0" parent="CaIECVP_0KfciF9ayiR9-54">
          <mxGeometry x="-0.0297" relative="1" as="geometry">
            <mxPoint as="offset" />
          </mxGeometry>
        </mxCell>
        <mxCell id="CaIECVP_0KfciF9ayiR9-55" value="" style="endArrow=none;html=1;rounded=0;entryX=0.75;entryY=0;entryDx=0;entryDy=0;exitX=0;exitY=1;exitDx=0;exitDy=0;" edge="1" parent="1" source="CaIECVP_0KfciF9ayiR9-51" target="CaIECVP_0KfciF9ayiR9-3">
          <mxGeometry width="50" height="50" relative="1" as="geometry">
            <mxPoint x="120" y="520" as="sourcePoint" />
            <mxPoint x="170" y="470" as="targetPoint" />
          </mxGeometry>
        </mxCell>
        <mxCell id="CaIECVP_0KfciF9ayiR9-82" value="1" style="edgeLabel;html=1;align=center;verticalAlign=middle;resizable=0;points=[];fontSize=14;" vertex="1" connectable="0" parent="CaIECVP_0KfciF9ayiR9-55">
          <mxGeometry x="0.0594" y="1" relative="1" as="geometry">
            <mxPoint as="offset" />
          </mxGeometry>
        </mxCell>
        <mxCell id="CaIECVP_0KfciF9ayiR9-56" value="melakukan" style="rhombus;whiteSpace=wrap;html=1;" vertex="1" parent="1">
          <mxGeometry x="35" y="560" width="85" height="95" as="geometry" />
        </mxCell>
        <mxCell id="CaIECVP_0KfciF9ayiR9-57" value="" style="endArrow=none;html=1;rounded=0;entryX=1;entryY=1;entryDx=0;entryDy=0;exitX=0.5;exitY=0;exitDx=0;exitDy=0;fontSize=14;" edge="1" parent="1" source="CaIECVP_0KfciF9ayiR9-3" target="CaIECVP_0KfciF9ayiR9-56">
          <mxGeometry width="50" height="50" relative="1" as="geometry">
            <mxPoint x="80" y="680" as="sourcePoint" />
            <mxPoint x="130" y="630" as="targetPoint" />
          </mxGeometry>
        </mxCell>
        <mxCell id="CaIECVP_0KfciF9ayiR9-81" value="1" style="edgeLabel;html=1;align=center;verticalAlign=middle;resizable=0;points=[];fontSize=14;" vertex="1" connectable="0" parent="CaIECVP_0KfciF9ayiR9-57">
          <mxGeometry x="0.1654" y="1" relative="1" as="geometry">
            <mxPoint as="offset" />
          </mxGeometry>
        </mxCell>
        <mxCell id="CaIECVP_0KfciF9ayiR9-58" value="" style="endArrow=none;html=1;rounded=0;entryX=0;entryY=0.5;entryDx=0;entryDy=0;exitX=1;exitY=0.5;exitDx=0;exitDy=0;" edge="1" parent="1" source="CaIECVP_0KfciF9ayiR9-38" target="CaIECVP_0KfciF9ayiR9-56">
          <mxGeometry width="50" height="50" relative="1" as="geometry">
            <mxPoint x="-40" y="537" as="sourcePoint" />
            <mxPoint x="30.710678118654755" y="537" as="targetPoint" />
          </mxGeometry>
        </mxCell>
        <mxCell id="CaIECVP_0KfciF9ayiR9-80" value="M" style="edgeLabel;html=1;align=center;verticalAlign=middle;resizable=0;points=[];fontSize=14;" vertex="1" connectable="0" parent="CaIECVP_0KfciF9ayiR9-58">
          <mxGeometry x="-0.0761" y="3" relative="1" as="geometry">
            <mxPoint as="offset" />
          </mxGeometry>
        </mxCell>
        <mxCell id="CaIECVP_0KfciF9ayiR9-59" value="&lt;u&gt;id&lt;/u&gt;" style="ellipse;whiteSpace=wrap;html=1;" vertex="1" parent="1">
          <mxGeometry x="-280" y="400" width="70" height="30" as="geometry" />
        </mxCell>
        <mxCell id="CaIECVP_0KfciF9ayiR9-60" value="id_hewan" style="ellipse;whiteSpace=wrap;html=1;" vertex="1" parent="1">
          <mxGeometry x="-280" y="447" width="70" height="30" as="geometry" />
        </mxCell>
        <mxCell id="CaIECVP_0KfciF9ayiR9-61" value="id_pengguna" style="ellipse;whiteSpace=wrap;html=1;" vertex="1" parent="1">
          <mxGeometry x="-280" y="495" width="70" height="30" as="geometry" />
        </mxCell>
        <mxCell id="CaIECVP_0KfciF9ayiR9-62" value="pekerjaan" style="ellipse;whiteSpace=wrap;html=1;" vertex="1" parent="1">
          <mxGeometry x="-280" y="550" width="70" height="30" as="geometry" />
        </mxCell>
        <mxCell id="CaIECVP_0KfciF9ayiR9-63" value="hobi" style="ellipse;whiteSpace=wrap;html=1;" vertex="1" parent="1">
          <mxGeometry x="-280" y="602" width="70" height="30" as="geometry" />
        </mxCell>
        <mxCell id="CaIECVP_0KfciF9ayiR9-64" value="penghasilan" style="ellipse;whiteSpace=wrap;html=1;" vertex="1" parent="1">
          <mxGeometry x="-200" y="360" width="80" height="40" as="geometry" />
        </mxCell>
        <mxCell id="CaIECVP_0KfciF9ayiR9-65" value="alamat" style="ellipse;whiteSpace=wrap;html=1;" vertex="1" parent="1">
          <mxGeometry x="-200" y="642" width="70" height="30" as="geometry" />
        </mxCell>
        <mxCell id="CaIECVP_0KfciF9ayiR9-66" value="alasan" style="ellipse;whiteSpace=wrap;html=1;" vertex="1" parent="1">
          <mxGeometry x="-110" y="360" width="80" height="40" as="geometry" />
        </mxCell>
        <mxCell id="CaIECVP_0KfciF9ayiR9-67" value="status" style="ellipse;whiteSpace=wrap;html=1;" vertex="1" parent="1">
          <mxGeometry x="-105" y="642" width="70" height="30" as="geometry" />
        </mxCell>
        <mxCell id="CaIECVP_0KfciF9ayiR9-68" value="" style="endArrow=none;html=1;rounded=0;entryX=1;entryY=0.5;entryDx=0;entryDy=0;exitX=0.25;exitY=0;exitDx=0;exitDy=0;" edge="1" parent="1" source="CaIECVP_0KfciF9ayiR9-38" target="CaIECVP_0KfciF9ayiR9-60">
          <mxGeometry width="50" height="50" relative="1" as="geometry">
            <mxPoint x="-170" y="520" as="sourcePoint" />
            <mxPoint x="-120" y="470" as="targetPoint" />
          </mxGeometry>
        </mxCell>
        <mxCell id="CaIECVP_0KfciF9ayiR9-69" value="" style="endArrow=none;html=1;rounded=0;entryX=1;entryY=0.5;entryDx=0;entryDy=0;exitX=0;exitY=0.25;exitDx=0;exitDy=0;" edge="1" parent="1" source="CaIECVP_0KfciF9ayiR9-38" target="CaIECVP_0KfciF9ayiR9-61">
          <mxGeometry width="50" height="50" relative="1" as="geometry">
            <mxPoint x="-120" y="517" as="sourcePoint" />
            <mxPoint x="-200" y="472" as="targetPoint" />
          </mxGeometry>
        </mxCell>
        <mxCell id="CaIECVP_0KfciF9ayiR9-70" value="" style="endArrow=none;html=1;rounded=0;entryX=1;entryY=0.5;entryDx=0;entryDy=0;exitX=0;exitY=0.75;exitDx=0;exitDy=0;" edge="1" parent="1" source="CaIECVP_0KfciF9ayiR9-38" target="CaIECVP_0KfciF9ayiR9-62">
          <mxGeometry width="50" height="50" relative="1" as="geometry">
            <mxPoint x="-150" y="532" as="sourcePoint" />
            <mxPoint x="-200" y="520" as="targetPoint" />
          </mxGeometry>
        </mxCell>
        <mxCell id="CaIECVP_0KfciF9ayiR9-71" value="" style="endArrow=none;html=1;rounded=0;entryX=0.25;entryY=1;entryDx=0;entryDy=0;exitX=1;exitY=0.5;exitDx=0;exitDy=0;" edge="1" parent="1" source="CaIECVP_0KfciF9ayiR9-63" target="CaIECVP_0KfciF9ayiR9-38">
          <mxGeometry width="50" height="50" relative="1" as="geometry">
            <mxPoint x="-170" y="620" as="sourcePoint" />
            <mxPoint x="-120" y="570" as="targetPoint" />
          </mxGeometry>
        </mxCell>
        <mxCell id="CaIECVP_0KfciF9ayiR9-72" value="" style="endArrow=none;html=1;rounded=0;entryX=0.5;entryY=1;entryDx=0;entryDy=0;exitX=0.5;exitY=0;exitDx=0;exitDy=0;" edge="1" parent="1" source="CaIECVP_0KfciF9ayiR9-65" target="CaIECVP_0KfciF9ayiR9-38">
          <mxGeometry width="50" height="50" relative="1" as="geometry">
            <mxPoint x="-200" y="627" as="sourcePoint" />
            <mxPoint x="-120" y="577" as="targetPoint" />
          </mxGeometry>
        </mxCell>
        <mxCell id="CaIECVP_0KfciF9ayiR9-73" value="" style="endArrow=none;html=1;rounded=0;entryX=0.75;entryY=1;entryDx=0;entryDy=0;exitX=0.5;exitY=0;exitDx=0;exitDy=0;" edge="1" parent="1" source="CaIECVP_0KfciF9ayiR9-67" target="CaIECVP_0KfciF9ayiR9-38">
          <mxGeometry width="50" height="50" relative="1" as="geometry">
            <mxPoint x="-155" y="652" as="sourcePoint" />
            <mxPoint x="-90" y="577" as="targetPoint" />
          </mxGeometry>
        </mxCell>
        <mxCell id="CaIECVP_0KfciF9ayiR9-74" value="" style="endArrow=none;html=1;rounded=0;entryX=0.5;entryY=1;entryDx=0;entryDy=0;exitX=0.75;exitY=0;exitDx=0;exitDy=0;" edge="1" parent="1" source="CaIECVP_0KfciF9ayiR9-38" target="CaIECVP_0KfciF9ayiR9-66">
          <mxGeometry width="50" height="50" relative="1" as="geometry">
            <mxPoint x="-70" y="510" as="sourcePoint" />
            <mxPoint x="-60" y="577" as="targetPoint" />
          </mxGeometry>
        </mxCell>
        <mxCell id="CaIECVP_0KfciF9ayiR9-75" value="" style="endArrow=none;html=1;rounded=0;entryX=1;entryY=0.5;entryDx=0;entryDy=0;exitX=0.5;exitY=0;exitDx=0;exitDy=0;" edge="1" parent="1" source="CaIECVP_0KfciF9ayiR9-38" target="CaIECVP_0KfciF9ayiR9-59">
          <mxGeometry width="50" height="50" relative="1" as="geometry">
            <mxPoint x="-60" y="517" as="sourcePoint" />
            <mxPoint x="-60" y="410" as="targetPoint" />
          </mxGeometry>
        </mxCell>
        <mxCell id="CaIECVP_0KfciF9ayiR9-76" value="" style="endArrow=none;html=1;rounded=0;entryX=1;entryY=1;entryDx=0;entryDy=0;exitX=0.5;exitY=0;exitDx=0;exitDy=0;" edge="1" parent="1" source="CaIECVP_0KfciF9ayiR9-38" target="CaIECVP_0KfciF9ayiR9-64">
          <mxGeometry width="50" height="50" relative="1" as="geometry">
            <mxPoint x="-90" y="517" as="sourcePoint" />
            <mxPoint x="-200" y="425" as="targetPoint" />
          </mxGeometry>
        </mxCell>
        <mxCell id="CaIECVP_0KfciF9ayiR9-77" value="" style="endArrow=none;html=1;rounded=0;entryX=0;entryY=0.5;entryDx=0;entryDy=0;exitX=1;exitY=0.5;exitDx=0;exitDy=0;" edge="1" parent="1" source="CaIECVP_0KfciF9ayiR9-38" target="CaIECVP_0KfciF9ayiR9-36">
          <mxGeometry width="50" height="50" relative="1" as="geometry">
            <mxPoint x="130" y="505" as="sourcePoint" />
            <mxPoint x="215" y="450" as="targetPoint" />
          </mxGeometry>
        </mxCell>
        <mxCell id="CaIECVP_0KfciF9ayiR9-78" value="1" style="edgeLabel;html=1;align=center;verticalAlign=middle;resizable=0;points=[];fontSize=14;" vertex="1" connectable="0" parent="CaIECVP_0KfciF9ayiR9-77">
          <mxGeometry x="0.036" y="-1" relative="1" as="geometry">
            <mxPoint as="offset" />
          </mxGeometry>
        </mxCell>
      </root>
    </mxGraphModel>
  </diagram>
</mxfile>
